<?xml version="1.0" encoding="utf-8"?>
<!-- Generator: Adobe Illustrator 24.0.2, SVG Export Plug-In . SVG Version: 6.00 Build 0)  -->
<svg version="1.1" id="Layer_1" xmlns="http://www.w3.org/2000/svg" xmlns:xlink="http://www.w3.org/1999/xlink" x="0px" y="0px"
	 viewBox="0 0 245 285" style="enable-background:new 0 0 245 285;" xml:space="preserve">
<style type="text/css">
	.st0{fill:#D6D6D6;}
</style>
<title>ghost-green</title>
<g id="Layer_2_1_">
	<g id="Layer_1-2">
		<path class="st0" d="M245,285l-30.6-33l-30.6,33l-30.6-33l-30.6,33l-30.6-33l-30.6,33l-30.6-33L0,285V130c0-8.8,0.9-17.6,2.6-26.2
			C6,87.2,12.7,71.4,22.2,57.3c14.1-20.9,34-37.3,57.2-47.1c7.9-3.3,16-5.9,24.4-7.6C112.4,0.9,121.2,0,130,0l0,0
			c7.8,0,15.5,0.8,23.2,2.3c14.7,3,28.7,8.9,41.1,17.3c18.5,12.5,33,30.1,41.7,50.6c2.9,7,5.2,14.2,6.7,21.6
			c1.6,7.6,2.3,15.4,2.3,23.2V285z"/>
		<path d="M53,164l34.5,42l34.5-15l34.5,15l34.5-42l-19.1,8.9c-9.5,4.4-20.7,3.6-29.4-2.3L122,157l-21.3,14.2
			c-8.2,5.5-18.6,6.3-27.5,2.1L53,164z"/>
		<circle cx="77.5" cy="98.5" r="24.5"/>
		<circle cx="166.5" cy="98.5" r="24.5"/>
	</g>
</g>
</svg>
