<svg xmlns="http://www.w3.org/2000/svg" viewBox="0 0 245 285"><defs><style>.cls-1{fill:#ff7bac;}.cls-2{fill:#fff;}</style></defs><title>ghost-pink</title><g id="Layer_2" data-name="Layer 2"><g id="Layer_1-2" data-name="Layer 1"><path class="cls-1" d="M245,285l-30.625-33L183.75,285l-30.625-33L122.5,285,91.875,252,61.25,285,30.625,252,0,285V130a130.568,130.568,0,0,1,2.641-26.2A129.285,129.285,0,0,1,22.2,57.316a130.384,130.384,0,0,1,57.2-47.1,129.071,129.071,0,0,1,24.4-7.575A130.568,130.568,0,0,1,130,0h0a115.521,115.521,0,0,1,23.177,2.336A114.384,114.384,0,0,1,194.3,19.64a115.332,115.332,0,0,1,41.665,50.6,114.177,114.177,0,0,1,6.7,21.586A115.521,115.521,0,0,1,245,115V285Z"/><path class="cls-2" d="M53,164l34.5,42L122,191l34.5,15L191,164l-19.139,8.876a30.191,30.191,0,0,1-29.45-2.269L122,157l-21.321,14.214a28.246,28.246,0,0,1-27.549,2.122Z"/><circle class="cls-2" cx="77.5" cy="98.5" r="24.5"/><circle class="cls-2" cx="166.5" cy="98.5" r="24.5"/></g></g></svg>