<svg xmlns="http://www.w3.org/2000/svg" viewBox="0 0 246 261"><defs><style>.cls-1{fill:#fff002;}.cls-2{fill:#fff;}</style></defs><title>pickman-closed_1</title><g id="Layer_2" data-name="Layer 2"><g id="Layer_1-2" data-name="Layer 1"><path class="cls-1" d="M104.5,169.5l133.155-49.458C243.04,102.587,246,87.415,246,77.5,246,34.7,190.931,0,123,0S0,34.7,0,77.5,55.069,261,123,261c28.793,0,55.274-25.281,76.231-57.667Z"/><path class="cls-2" d="M152.173,30.2A12.79,12.79,0,0,0,139.4,42.97v8.107a12.74,12.74,0,0,0-15.969,2.62,12.742,12.742,0,0,0-15.97-2.62V42.97a12.776,12.776,0,0,0-25.551,0v60.9A35.173,35.173,0,0,0,117.04,139h12.775a35.173,35.173,0,0,0,35.133-35.133V42.97A12.79,12.79,0,0,0,152.173,30.2ZM126.622,62.134a6.388,6.388,0,1,1,12.775,0V76.841a12.687,12.687,0,0,0-6.388-1.719h-6.387Zm-19.164,0a6.388,6.388,0,1,1,12.776,0V75.122H107.459V62.134ZM88.3,42.97a6.388,6.388,0,0,1,12.776,0V75.351A22.322,22.322,0,0,0,88.3,81.85V42.97Zm70.266,60.9a28.778,28.778,0,0,1-28.745,28.745H117.04A28.778,28.778,0,0,1,88.3,103.867V97.479a15.988,15.988,0,0,1,15.97-15.969H133.01a6.388,6.388,0,0,1,0,12.776H104.265a3.194,3.194,0,1,0,0,6.387,22.383,22.383,0,0,1,22.357,22.357,3.194,3.194,0,1,0,6.387,0,28.7,28.7,0,0,0-10.7-22.357h10.7A12.79,12.79,0,0,0,145.785,87.9V42.97a6.388,6.388,0,0,1,12.775,0v60.9Z"/></g></g></svg>